<svg width="25" height="25" viewBox="0 0 25 25" fill="none" xmlns="http://www.w3.org/2000/svg">
<path d="M20.6538 7.84765C20.811 7.6905 21.0818 7.67448 21.241 7.8482C22.1737 8.86551 22.6899 9.61878 22.8599 10.453C22.9577 10.933 22.9716 11.4215 22.901 11.8967C22.7102 13.1809 21.6697 14.2214 19.5887 16.3024L17.0504 18.8407C14.9694 20.9217 13.9289 21.9622 12.6447 22.153C12.1695 22.2236 11.681 22.2097 11.201 22.1119C10.3669 21.9419 9.61372 21.4258 8.59658 20.4933C8.42265 20.3339 8.43873 20.0628 8.59605 19.9055C9.47224 19.0293 9.4306 17.5671 8.50307 16.6395C7.57553 15.712 6.11333 15.6704 5.23714 16.5466C5.07982 16.7039 4.80872 16.72 4.64926 16.546C3.71677 15.5289 3.20067 14.7757 3.0307 13.9416C2.9329 13.4616 2.91899 12.9731 2.9896 12.4979C3.18044 11.2137 4.22092 10.1731 6.30188 8.09219L8.84023 5.55384C10.9212 3.47288 11.9617 2.4324 13.2459 2.24155C13.7211 2.17095 14.2096 2.18486 14.6896 2.28266C15.5238 2.45265 16.2771 2.96884 17.2944 3.90154C17.4681 4.06082 17.4521 4.33159 17.2949 4.48874C16.4187 5.36492 16.4604 6.82712 17.3879 7.75466C18.3154 8.6822 19.7777 8.72383 20.6538 7.84765Z" stroke="#1E93FF" stroke-width="1.5" stroke-linejoin="round"/>
<path d="M19.9453 15.1973L9.94531 5.19727" stroke="#1E93FF" stroke-width="1.5" stroke-linecap="round" stroke-linejoin="round"/>
</svg>
